<?xml version="1.0" encoding="utf-8"?>
<!-- Generator: Adobe Illustrator 21.0.2, SVG Export Plug-In . SVG Version: 6.00 Build 0)  -->
<svg version="1.1" xmlns="http://www.w3.org/2000/svg" xmlns:xlink="http://www.w3.org/1999/xlink" x="0px" y="0px"
	 viewBox="0 0 600 450" style="enable-background:new 0 0 600 450;" xml:space="preserve">
<g id="Regions" style="display:none;">
	<rect x="100" y="50" style="display:inline;fill:#B1A79D;" width="50" height="50"/>
	<rect x="100" y="150" style="display:inline;fill:#B1A79D;" width="50" height="50"/>
	<rect x="-0.0000034" y="50" style="display:inline;fill:#B1A79D;" width="50" height="50"/>
	<rect x="200" y="50" style="display:inline;fill:#B1A79D;" width="50" height="50"/>
	<rect x="300" y="50" style="display:inline;fill:#B1A79D;" width="50" height="50"/>
	<rect x="400" y="50" style="display:inline;fill:#B1A79D;" width="50" height="50"/>
	<rect x="500" y="50" style="display:inline;fill:#B1A79D;" width="50" height="50"/>
	<rect x="200" y="150" style="display:inline;fill:#CCCCCC;" width="50" height="50"/>
</g>
<g id="Icons">
	<circle style="fill:#FFFFFF;" cx="225" cy="75" r="23.9340935"/>
	<circle style="fill:#FFFFFF;" cx="124.9999924" cy="75" r="23.9340935"/>
	<circle style="fill:#FFFFFF;" cx="325" cy="75" r="23.9340935"/>
	<path style="fill:#D21D23;" d="M143.06633,63.7940102c-1.3293915,0.5895729-2.7580261,0.9881248-4.2576447,1.1672783
		c1.5305939-0.9174118,2.7060089-2.3701859,3.2594452-4.1012383c-1.432251,0.8495255-3.0187378,1.4664574-4.7073212,1.7989426
		c-1.3522339-1.4407768-3.2788239-2.3410149-5.4108734-2.3410149c-4.0941315,0-7.413208,3.3190842-7.413208,7.4128265
		c0,0.5810623,0.065567,1.1467514,0.1919174,1.6893539c-6.1608734-0.3091202-11.6231079-3.2603531-15.2793198-7.7453003
		c-0.6380997,1.0948753-1.0036163,2.3682404-1.0036163,3.726799c0,2.571785,1.3087311,4.8407898,3.2977829,6.1701736
		c-1.2151566-0.0384598-2.3581848-0.3719711-3.3576736-0.9272232c-0.0005188,0.0309753-0.0006409,0.0619583-0.0006409,0.0931854
		c0,3.5917435,2.5552521,6.5878983,5.9464874,7.2688599c-0.6220932,0.1693344-1.2769852,0.2599411-1.9530334,0.2599411
		c-0.4776764,0-0.9420624-0.046463-1.3947067-0.1329422c0.9433517,2.9450455,3.6809921,5.0883331,6.9248352,5.1482162
		c-2.5370636,1.9881516-5.7334061,3.1732407-9.2064667,3.1732407c-0.5983582,0-1.188446-0.0351028-1.7683487-0.103508
		c3.280632,2.1032639,7.1771545,3.3304367,11.3634338,3.3304367c13.6352539,0,21.0914459-11.2956772,21.0914459-21.0916519
		c0-0.3213806-0.0072174-0.6410751-0.0214233-0.9589691C140.8156586,66.586235,142.072525,65.2805939,143.06633,63.7940102z"/>
	<polygon style="fill:#242C3C;" points="424.9438782,54.5354691 416.8304138,62.9530983 416.8304138,59.6622162 
		410.5118408,59.6622162 410.5118408,68.3730392 402.6669006,76.5084152 410.3392944,76.5084152 410.3392944,95.4645309 
		418.9348145,95.4645309 418.9348145,83.1833344 431.5721741,83.1833344 431.5721741,95.4645309 440.1761169,95.4645309 
		440.1761169,76.5084152 447.3333435,76.5084152 	"/>
	<path style="fill:#FFFFFF;" d="M546.7424316,90.3085938l-8.3959961-8.3982391
		c-0.7397461-0.7394791-2.0774536-0.6699829-3.4216919,0.0327454l-3.8737793-3.8762665
		c2.0228882-2.6558914,3.2278442-5.9686356,3.2278442-9.5617981c0-8.7158546-7.0649414-15.7785683-15.7741089-15.7785683
		c-8.713623,0-15.7785645,7.0627136-15.7785645,15.7785683c0,8.7091675,7.0649414,15.7741089,15.7785645,15.7741089
		c3.5932007,0,6.9104004-1.2049942,9.5640259-3.2323303l3.8740234,3.8762589
		c-0.6982422,1.3442078-0.7699585,2.68396-0.0305176,3.4192123l8.4005127,8.4026871
		c1.0570679,1.0593262,3.3626099,0.4762039,5.1375732-1.3007736
		C547.2252808,93.6714478,547.8039551,91.3701477,546.7424316,90.3085938z M518.5046997,80.5683746
		c-6.6624451,0-12.0677795-5.4008865-12.0677795-12.0633392c0-6.6669121,5.4053345-12.0635681,12.0677795-12.0635681
		c6.6644897-0.0042305,12.0633545,5.396656,12.0633545,12.0635681
		C530.5680542,75.1674881,525.1691895,80.5683746,518.5046997,80.5683746z"/>
	<path style="fill:#FFFFFF;" d="M114.730957,197.1894531c-0.6899414,0-1.3764648-0.2841797-1.8706055-0.8408203
		c-0.9165039-1.0322266-0.8227539-2.6123047,0.2099609-3.5292969L133.1464844,175l-20.0761719-17.8193359
		c-1.0327148-0.9169922-1.1264648-2.4970703-0.2099609-3.5292969c0.9160156-1.0322266,2.4975586-1.1259766,3.5292969-0.2109375
		l22.1826172,19.6894531c0.534668,0.4746094,0.840332,1.1552734,0.840332,1.8701172s-0.3056641,1.3955078-0.840332,1.8701172
		l-22.1826172,19.6894531C115.9135742,196.9814453,115.3208008,197.1894531,114.730957,197.1894531z"/>
	<rect x="550" y="400" style="fill:#CCCCCC;" width="50" height="50"/>
	<rect x="99.9999924" y="250" style="fill:#CCCCCC;" width="50" height="50"/>
	<rect y="50" style="fill:#CCCCCC;" width="50" height="50"/>
	<rect y="150.0003357" style="fill:#CCCCCC;" width="50" height="50"/>
	<polyline points="300,150.0004425 329.9998779,175.0003357 300,200.0002136 	"/>
	<path style="fill:#FFFFFF;" d="M231.132431,157.6935272c-1.2571564-1.2571564-3.2937469-1.2571564-4.5509033,0
		c-1.2571564,1.2561035-1.2571564,3.2947845,0,4.5508881l9.3521729,9.3521729h-31.1543427
		c-1.777832,0-3.2183228,1.4404907-3.2183228,3.2183075c0,1.777832,1.4404907,3.2183075,3.2183228,3.2183075h31.5252075
		l-9.7230377,9.7230377c-1.2571564,1.2561035-1.2571564,3.2947845,0,4.5508881
		c0.6285858,0.6285858,1.4520111,0.9428711,2.2754517,0.9428711s1.6468658-0.3142853,2.2754517-0.9428711l17.3068085-17.3068085
		L231.132431,157.6935272z"/>
	<g>
		<path style="fill:#FFFFFF;" d="M102,261v29.4467163h45.9632874V261H102z M144.2067719,262.9912109l-19.2251282,16.0288086
			l-19.2341766-16.0288086H144.2067719z M103.9965591,288.4500732v-24.3223267l20.9850845,17.4814758l20.9832001-17.4814758
			v24.3295593h-41.9682846V288.4500732z M103.9965591,288.4500732"/>
	</g>
	<g>
		<path style="fill:#D21D23;" d="M325,62.9950714c3.9099426,0,4.3730774,0.0149117,5.9171753,0.0853577
			c1.4277039,0.0651474,2.203064,0.3036842,2.7190552,0.5042191c0.6835022,0.2656288,1.1713257,0.5829773,1.6837158,1.0953751
			c0.5124207,0.5124207,0.8297729,1.0002213,1.0953979,1.6837311c0.200531,0.5159912,0.4390564,1.2913742,0.5042114,2.7190552
			c0.0704651,1.5441132,0.0853577,2.0072327,0.0853577,5.9171906s-0.0148926,4.3730774-0.0853577,5.9171677
			c-0.065155,1.4277039-0.3036804,2.2030792-0.5042114,2.7190781c-0.265625,0.6835022-0.5829773,1.1713104-1.0953674,1.6837082
			c-0.5124207,0.5124207-1.0002441,0.8297729-1.6837463,1.0953979c-0.5159912,0.200531-1.2913513,0.4390717-2.7190552,0.5042191
			c-1.5438843,0.0704498-2.006958,0.0853577-5.9171753,0.0853577s-4.3733215-0.0149078-5.9171753-0.0853577
			c-1.4277039-0.0651474-2.2030945-0.303688-2.7190857-0.5042191c-0.6835022-0.265625-1.1712952-0.5829773-1.6837158-1.0953751
			c-0.5123901-0.5124054-0.8297424-1.0002289-1.0953979-1.6837311c-0.200531-0.5159988-0.4390564-1.2913742-0.5042114-2.7190552
			c-0.0704346-1.5441132-0.0853577-2.0072327-0.0853577-5.9171906s0.0149231-4.3730774,0.0853577-5.9171677
			c0.065155-1.4277039,0.3036804-2.2030869,0.5042114-2.7190781c0.2656555-0.6835098,0.5830078-1.1713104,1.0953979-1.6837082
			c0.5124207-0.5124207,1.0002136-0.8297691,1.6837158-1.0953979c0.5159912-0.2005348,1.2913818-0.4390717,2.7190552-0.5042191
			C320.6269226,63.0099831,321.0900269,62.9950714,325,62.9950714 M325,60.3566246
			c-3.9769287,0-4.4755859,0.0168419-6.0374451,0.0881042c-1.5586548,0.0711212-2.6230774,0.3186607-3.5545349,0.6806526
			c-0.9629211,0.374218-1.7795715,0.8749123-2.5936584,1.6889877c-0.8140869,0.8140869-1.3147583,1.6307297-1.6889954,2.5936432
			c-0.3619995,0.9314651-0.6095276,1.995903-0.6806335,3.5545502c-0.0712585,1.5618591-0.0881042,2.0605164-0.0881042,6.0374374
			c0,3.9769135,0.0168457,4.4755707,0.0881042,6.0374374c0.071106,1.5586472,0.318634,2.6230774,0.6806335,3.5545502
			c0.3742371,0.9629059,0.8749084,1.7795563,1.6889954,2.5936432c0.8140869,0.8140793,1.6307373,1.3147736,2.5936584,1.6889877
			c0.9314575,0.3619919,1.9958801,0.6095352,3.5545349,0.6806564c1.5618591,0.0712662,2.0605164,0.0880966,6.0374451,0.0880966
			c3.9768982,0,4.4755554-0.0168304,6.0374451-0.0880966c1.5586243-0.0711212,2.6230774-0.3186646,3.5545349-0.6806564
			c0.9629211-0.3742142,1.779541-0.8749084,2.5936279-1.6889877c0.8140869-0.8140869,1.3147888-1.6307297,1.6889954-2.5936432
			c0.3619995-0.9314728,0.6095276-1.995903,0.6806641-3.5545502c0.0712585-1.5618668,0.0881042-2.060524,0.0881042-6.0374374
			c0-3.9769058-0.0168457-4.4755783-0.0881042-6.0374374c-0.0711365-1.5586472-0.3186646-2.623085-0.6806641-3.5545502
			c-0.3742065-0.9629135-0.8749084-1.7795563-1.6889954-2.5936432c-0.8140869-0.8140755-1.6307068-1.3147697-2.5936279-1.6889877
			c-0.9314575-0.3619919-1.9959106-0.6095314-3.5545349-0.6806526C329.4755554,60.3734665,328.9768982,60.3566246,325,60.3566246
			L325,60.3566246z"/>
		<path style="fill:#D21D23;" d="M325,67.4804306c-4.1529541,0-7.5195923,3.3666229-7.5195923,7.5195694
			S320.8470459,82.5195694,325,82.5195694c4.1529236,0,7.5195618-3.3666229,7.5195618-7.5195694
			S329.1529236,67.4804306,325,67.4804306z M325,79.8811188c-2.6957703,0-4.881134-2.1853485-4.881134-4.8811188
			S322.3042297,70.1188736,325,70.1188736S329.8811035,72.3042297,329.8811035,75S327.6957703,79.8811188,325,79.8811188z"/>
		<circle style="fill:#D21D23;" cx="332.8166504" cy="67.1833267" r="1.757205"/>
	</g>
	<g>
		<path id="f_2_" style="fill:#D21D23;" d="M226.5547791,90.4230728V76.3527145h4.7229309l0.7070618-5.4835205h-5.4299927
			v-3.5009689c0-1.5876236,0.4408417-2.6695404,2.7175903-2.6695404l2.903717-0.0013199v-4.9044037
			c-0.5023956-0.0667343-2.2259674-0.2160339-4.2312469-0.2160339c-4.1864929,0-7.0526581,2.5554008-7.0526581,7.2483521v4.0439148
			h-4.7349701v5.4835205h4.7349701v14.0703583H226.5547791z"/>
	</g>
</g>
</svg>
